<svg xmlns="http://www.w3.org/2000/svg" x="0px" y="0px"
width="20" height="20"
viewBox="0 0 226 226"
style=" fill:#000000;"><g fill="none" fill-rule="nonzero" stroke="none" stroke-width="1" stroke-linecap="butt" stroke-linejoin="miter" stroke-miterlimit="10" stroke-dasharray="" stroke-dashoffset="0" font-family="none" font-weight="none" font-size="none" text-anchor="none" style="mix-blend-mode: normal"><path d="M0,226v-226h226v226z" fill="none"></path><g fill="#cccccc"><path d="M113,213.79953l-2.89562,-2.40125c-5.49109,-4.59062 -12.92437,-9.56969 -21.54063,-15.32563c-33.56453,-22.47641 -79.52375,-53.23359 -79.52375,-105.67266c0,-32.39922 26.36078,-58.76 58.76,-58.76c17.60328,0 34.09422,7.83938 45.2,21.24047c11.10578,-13.40109 27.59672,-21.24047 45.2,-21.24047c32.39922,0 58.76,26.36078 58.76,58.76c0,52.43906 -45.95922,83.19625 -79.52375,105.67266c-8.61625,5.75594 -16.04953,10.735 -21.54063,15.32563z"></path></g></g></svg>