<svg width="295" height="105" viewBox="0 0 295 105" fill="none" xmlns="http://www.w3.org/2000/svg">
<g clip-path="url(#clip0_2_8)">
<path d="M3 37C3 19.3269 17.3269 5 35 5H103V73C103 90.6731 88.6731 105 71 105H3V37Z" fill="#31BDF9"/>
<path d="M3 37C3 19.3269 17.3269 5 35 5H103V73C103 90.6731 88.6731 105 71 105H3V37Z" stroke="#31BDF9"/>
<path d="M53.2587 25L51.0971 26.6354L12 57.559L16.3232 60.9784L20.1766 57.9307V85.4348H47.2438V61.6474H59.2737V85.4348H86.3409V57.9307L90.1942 60.9784L94.5175 57.559L55.4204 26.6354L53.2587 25ZM53.2587 31.7645L80.326 53.1732V80.6773H65.2886V56.89H41.2289V80.6773H26.1915V53.1732L53.2587 31.7645Z" fill="white"/>
<path d="M53.2587 25L51.0971 26.6354L12 57.559L16.3232 60.9784L20.1766 57.9307V85.4348H47.2438V61.6474H59.2737V85.4348H86.3409V57.9307L90.1942 60.9784L94.5175 57.559L55.4204 26.6354L53.2587 25ZM53.2587 31.7645L80.326 53.1732V80.6773H65.2886V56.89H41.2289V80.6773H26.1915V53.1732L53.2587 31.7645Z" fill="url(#paint0_linear_2_8)"/>
<path d="M53.2587 25L51.0971 26.6354L12 57.559L16.3232 60.9784L20.1766 57.9307V85.4348H47.2438V61.6474H59.2737V85.4348H86.3409V57.9307L90.1942 60.9784L94.5175 57.559L55.4204 26.6354L53.2587 25ZM53.2587 31.7645L80.326 53.1732V80.6773H65.2886V56.89H41.2289V80.6773H26.1915V53.1732L53.2587 31.7645Z" stroke="#31BDF9"/>
<path d="M146.744 31.728V62.16H151.112V75.024H146.984V66H123.416V75.024H119.288V62.16H121.928C123.08 60.176 124.168 57.952 125.192 55.488C126.248 53.024 127.176 50.448 127.976 47.76C128.776 45.04 129.432 42.32 129.944 39.6C130.456 36.88 130.776 34.256 130.904 31.728H146.744ZM134.696 35.616C134.568 37.472 134.248 39.568 133.736 41.904C133.256 44.24 132.632 46.64 131.864 49.104C131.128 51.536 130.296 53.888 129.368 56.16C128.472 58.432 127.512 60.432 126.488 62.16H142.472V35.616H134.696ZM178.635 53.088C178.635 57.344 177.548 60.64 175.372 62.976C173.228 65.312 170.316 66.48 166.636 66.48C164.364 66.48 162.332 65.968 160.54 64.944C158.78 63.888 157.388 62.368 156.364 60.384C155.34 58.368 154.828 55.936 154.828 53.088C154.828 48.832 155.9 45.552 158.044 43.248C160.188 40.944 163.1 39.792 166.78 39.792C169.116 39.792 171.164 40.32 172.924 41.376C174.716 42.4 176.108 43.904 177.1 45.888C178.124 47.84 178.635 50.24 178.635 53.088ZM159.196 53.088C159.196 56.128 159.788 58.544 160.972 60.336C162.188 62.096 164.108 62.976 166.732 62.976C169.324 62.976 171.228 62.096 172.444 60.336C173.66 58.544 174.268 56.128 174.268 53.088C174.268 50.048 173.66 47.664 172.444 45.936C171.228 44.208 169.308 43.344 166.684 43.344C164.06 43.344 162.156 44.208 160.972 45.936C159.788 47.664 159.196 50.048 159.196 53.088ZM212.93 40.272V66H209.138V49.584C209.138 48.912 209.154 48.208 209.186 47.472C209.25 46.736 209.314 46.016 209.378 45.312H209.234L200.834 66H197.282L189.122 45.312H188.978C189.074 46.752 189.122 48.224 189.122 49.728V66H185.33V40.272H190.946L199.058 60.96L207.314 40.272H212.93ZM225.127 67.632C223.783 67.632 222.615 67.136 221.623 66.144C220.663 65.184 220.183 64.032 220.183 62.688C220.183 61.312 220.663 60.144 221.623 59.184C222.615 58.192 223.783 57.696 225.127 57.696C226.503 57.696 227.671 58.192 228.631 59.184C229.591 60.144 230.071 61.312 230.071 62.688C230.071 64.032 229.591 65.184 228.631 66.144C227.671 67.136 226.503 67.632 225.127 67.632ZM236.452 41.28H243.22V45.312H243.604C244.532 43.68 245.444 42.48 246.34 41.712C247.268 40.944 248.42 40.56 249.796 40.56C250.372 40.56 250.852 40.624 251.236 40.752L250.516 48.048C249.684 47.824 249.012 47.712 248.5 47.712C247.764 47.712 247.108 47.856 246.532 48.144C245.988 48.432 245.492 48.816 245.044 49.296C244.628 49.776 244.02 50.512 243.22 51.504V66H236.452V41.28ZM263.687 66.672C261.063 66.672 258.999 65.872 257.495 64.272C255.991 62.672 255.239 60.48 255.239 57.696V41.28H262.007V56.592C262.007 57.904 262.327 58.928 262.967 59.664C263.607 60.368 264.471 60.72 265.559 60.72C266.647 60.72 267.687 60.368 268.679 59.664C269.703 58.96 270.551 58.016 271.223 56.832V41.28H277.991V66H271.223V62.736C270.295 63.984 269.223 64.96 268.007 65.664C266.823 66.336 265.383 66.672 263.687 66.672Z" fill="black"/>
</g>
<defs>
<linearGradient id="paint0_linear_2_8" x1="53.2587" y1="25" x2="53.2587" y2="85.4348" gradientUnits="userSpaceOnUse">
<stop stop-color="white"/>
<stop offset="1" stop-color="white" stop-opacity="0"/>
</linearGradient>
<clipPath id="clip0_2_8">
<rect width="295" height="105" fill="white"/>
</clipPath>
</defs>
</svg>
