<svg width="354" height="54" viewBox="0 0 354 54" fill="none" xmlns="http://www.w3.org/2000/svg">
<rect width="354" height="54" fill="white"/>
<path d="M7.86932 39V9.90909H19.0057C21.108 9.90909 22.8551 10.2405 24.2472 10.9034C25.6487 11.5568 26.6951 12.4517 27.3864 13.5881C28.0871 14.7244 28.4375 16.0123 28.4375 17.4517C28.4375 18.6354 28.2102 19.6487 27.7557 20.4915C27.3011 21.3248 26.6903 22.0019 25.9233 22.5227C25.1562 23.0436 24.2992 23.4176 23.3523 23.6449V23.929C24.3845 23.9858 25.3741 24.303 26.321 24.8807C27.2775 25.4489 28.0587 26.2538 28.6648 27.2955C29.2708 28.3371 29.5739 29.5966 29.5739 31.0739C29.5739 32.5795 29.2093 33.9337 28.4801 35.1364C27.7509 36.3295 26.6525 37.2718 25.1847 37.9631C23.7169 38.6544 21.8703 39 19.6449 39H7.86932ZM13.1392 34.5966H18.8068C20.7197 34.5966 22.0975 34.232 22.9403 33.5028C23.7926 32.7642 24.2188 31.8172 24.2188 30.6619C24.2188 29.8002 24.0057 29.0237 23.5795 28.3324C23.1534 27.6316 22.5473 27.0824 21.7614 26.6847C20.9754 26.2775 20.0379 26.0739 18.9489 26.0739H13.1392V34.5966ZM13.1392 22.2812H18.3523C19.2614 22.2812 20.0805 22.1155 20.8097 21.7841C21.5388 21.4432 22.1117 20.965 22.5284 20.3494C22.9545 19.7244 23.1676 18.9858 23.1676 18.1335C23.1676 17.0066 22.7699 16.0786 21.9744 15.3494C21.1884 14.6203 20.0189 14.2557 18.4659 14.2557H13.1392V22.2812ZM97.7521 9.90909V39H93.0646L79.3572 19.1847H79.1158V39H73.8459V9.90909H78.5618L92.255 29.7386H92.5107V9.90909H97.7521ZM103.494 39V9.90909H108.764V23.2756H109.119L120.469 9.90909H126.903L115.653 22.9631L127.003 39H120.668L111.989 26.5284L108.764 30.3352V39H103.494ZM140.945 22.3381V26.571H127.848V22.3381H140.945ZM146.04 39V35.7188L160.955 14.3267H145.955V9.90909H167.489V13.1903L152.589 34.5824H167.575V39H146.04ZM172.674 39V9.90909H191.594V14.3267H177.944V22.2244H190.614V26.642H177.944V34.5824H191.708V39H172.674ZM196.971 9.90909H203.42L212.056 30.9886H212.397L221.033 9.90909H227.482V39H222.425V19.0142H222.156L214.116 38.9148H210.337L202.298 18.9716H202.028V39H196.971V9.90909ZM233.221 39V9.90909H252.141V14.3267H238.491V22.2244H251.161V26.642H238.491V34.5824H252.255V39H233.221ZM257.518 39V9.90909H262.788V34.5824H275.6V39H257.518ZM283.114 39.3125C282.253 39.3125 281.514 39.0095 280.898 38.4034C280.283 37.7973 279.98 37.0587 279.989 36.1875C279.98 35.3352 280.283 34.6061 280.898 34C281.514 33.3939 282.253 33.0909 283.114 33.0909C283.948 33.0909 284.672 33.3939 285.288 34C285.913 34.6061 286.23 35.3352 286.239 36.1875C286.23 36.7652 286.078 37.2907 285.785 37.7642C285.501 38.2377 285.122 38.6165 284.648 38.9006C284.184 39.1752 283.673 39.3125 283.114 39.3125ZM291.548 39V17.1818H296.534V20.8182H296.761C297.159 19.5587 297.841 18.5881 298.807 17.9062C299.782 17.215 300.895 16.8693 302.145 16.8693C302.429 16.8693 302.746 16.8835 303.097 16.9119C303.456 16.9309 303.755 16.964 303.991 17.0114V21.7415C303.774 21.6657 303.428 21.5994 302.955 21.5426C302.491 21.4763 302.041 21.4432 301.605 21.4432C300.668 21.4432 299.825 21.6468 299.077 22.054C298.338 22.4517 297.756 23.0057 297.33 23.7159C296.903 24.4261 296.69 25.2453 296.69 26.1733V39H291.548ZM321.314 29.8239V17.1818H326.456V39H321.47V35.1222H321.243C320.75 36.3437 319.941 37.3428 318.814 38.1193C317.696 38.8958 316.319 39.2841 314.68 39.2841C313.25 39.2841 311.986 38.9669 310.888 38.3324C309.799 37.6884 308.946 36.7557 308.331 35.5341C307.715 34.303 307.408 32.8163 307.408 31.0739V17.1818H312.55V30.2784C312.55 31.661 312.929 32.7595 313.686 33.5739C314.444 34.3883 315.438 34.7955 316.669 34.7955C317.427 34.7955 318.161 34.6108 318.871 34.2415C319.581 33.8722 320.163 33.3229 320.618 32.5938C321.082 31.8551 321.314 30.9318 321.314 29.8239Z" fill="#545454"/>
<path d="M70.4665 25.6766H40.0642C39.7315 25.6766 39.402 25.7496 39.0947 25.8915C38.7873 26.0334 38.508 26.2415 38.2727 26.5037C38.0375 26.7659 37.8509 27.0772 37.7235 27.4198C37.5962 27.7624 37.5307 28.1297 37.5307 28.5005C37.5307 28.8713 37.5962 29.2385 37.7235 29.5812C37.8509 29.9238 38.0375 30.2351 38.2727 30.4973C38.508 30.7595 38.7873 30.9675 39.0947 31.1095C39.402 31.2514 39.7315 31.3244 40.0642 31.3244H70.4665C71.1384 31.3244 71.7828 31.0269 72.258 30.4973C72.7331 29.9677 73 29.2494 73 28.5005C73 27.7515 72.7331 27.0333 72.258 26.5037C71.7828 25.9741 71.1384 25.6766 70.4665 25.6766V25.6766ZM70.4665 29.2068H60.5013C60.3915 29.4214 60.2328 29.5998 60.0412 29.7239C59.8496 29.848 59.6319 29.9134 59.4102 29.9134C59.1886 29.9134 58.971 29.848 58.7793 29.7239C58.5877 29.5998 58.4289 29.4214 58.3192 29.2068H41.1533C41.0139 29.476 40.7987 29.6863 40.5411 29.8053C40.2834 29.9242 39.9978 29.9451 39.7284 29.8646C39.4591 29.7842 39.2211 29.6069 39.0513 29.3603C38.8816 29.1138 38.7895 28.8116 38.7895 28.5008C38.7895 28.19 38.8816 27.8878 39.0513 27.6413C39.2211 27.3947 39.4591 27.2174 39.7284 27.1369C39.9978 27.0565 40.2834 27.0774 40.5411 27.1963C40.7987 27.3153 41.0139 27.5256 41.1533 27.7948H58.3192C58.4291 27.5804 58.5879 27.4021 58.7795 27.2781C58.9711 27.1542 59.1887 27.0889 59.4102 27.0889C59.6318 27.0889 59.8494 27.1542 60.041 27.2781C60.2327 27.4021 60.3914 27.5804 60.5013 27.7948H70.4665C70.6345 27.7948 70.7956 27.8692 70.9144 28.0016C71.0331 28.134 71.0999 28.3136 71.0999 28.5008C71.0999 28.688 71.0331 28.8676 70.9144 29C70.7956 29.1324 70.6345 29.2068 70.4665 29.2068V29.2068Z" fill="#8E8E8E"/>
<path d="M36.4519 29.8212L32.3394 37.7609C32.1731 38.0821 32.0651 38.4367 32.0217 38.8044C31.9782 39.1721 32.0002 39.5458 32.0864 39.904C32.1725 40.2622 32.3211 40.598 32.5237 40.8923C32.7262 41.1865 32.9788 41.4334 33.267 41.6188C33.5552 41.8042 33.8733 41.9245 34.2032 41.9729C34.5331 42.0213 34.8683 41.9968 35.1897 41.9008C35.5111 41.8048 35.8124 41.6392 36.0763 41.4134C36.3403 41.1876 36.5618 40.9061 36.7281 40.5849L40.7932 32.7368H40.062C39.2615 32.7365 38.4814 32.4545 37.8332 31.9309C37.1849 31.4074 36.7015 30.669 36.4519 29.8212V29.8212ZM34.534 40.583C34.2834 40.5832 34.0383 40.5004 33.8298 40.3453C33.6213 40.1901 33.4588 39.9696 33.3628 39.7115C33.2668 39.4534 33.2416 39.1693 33.2905 38.8953C33.3393 38.6212 33.46 38.3695 33.6372 38.1719C33.8144 37.9742 34.0402 37.8396 34.2861 37.7851C34.5319 37.7305 34.7867 37.7585 35.0183 37.8654C35.2499 37.9723 35.4479 38.1533 35.5872 38.3856C35.7265 38.6179 35.8008 38.8911 35.8008 39.1705C35.8009 39.3559 35.7682 39.5396 35.7045 39.711C35.6409 39.8824 35.5476 40.0381 35.43 40.1693C35.3123 40.3004 35.1727 40.4045 35.0189 40.4755C34.8652 40.5465 34.7004 40.583 34.534 40.583V40.583ZM46.4443 11.94C46.314 11.6875 46.2071 11.421 46.1251 11.1444L39.284 24.3543C39.5399 24.2947 39.8006 24.2646 40.062 24.2644H45.1835L49.0062 16.884L46.4443 11.94Z" fill="#6AD289"/>
<path d="M51.9302 8.41222C51.5943 7.76353 51.0409 7.29017 50.3918 7.09628C49.7427 6.90238 49.0511 7.00383 48.4691 7.3783C47.8871 7.75278 47.4625 8.3696 47.2885 9.09309C47.1146 9.81657 47.2055 10.5875 47.5415 11.2361L54.29 24.2644H60.1416L51.9302 8.41222ZM49.7362 11.2361C49.4856 11.2361 49.2407 11.1533 49.0324 10.9982C48.8241 10.843 48.6617 10.6225 48.5658 10.3645C48.4699 10.1065 48.4449 9.82262 48.4937 9.54872C48.5426 9.27483 48.6632 9.02324 48.8404 8.82577C49.0176 8.62831 49.2433 8.49383 49.489 8.43935C49.7348 8.38487 49.9895 8.41283 50.2209 8.5197C50.4524 8.62657 50.6502 8.80754 50.7894 9.03974C50.9286 9.27193 51.0029 9.54492 51.0029 9.82418C51.0029 10.1987 50.8695 10.5578 50.6319 10.8226C50.3943 11.0874 50.0721 11.2361 49.7362 11.2361V11.2361ZM67.1325 37.761L64.5297 32.7368H58.6787L62.7416 40.5831C63.0775 41.2317 63.6309 41.7051 64.28 41.899C64.9291 42.0929 65.6207 41.9915 66.2027 41.617C66.7847 41.2425 67.2094 40.6257 67.3833 39.9022C67.5573 39.1787 67.4663 38.4078 67.1303 37.7591L67.1325 37.761ZM64.9384 40.5831C64.6877 40.5832 64.4427 40.5004 64.2342 40.3453C64.0257 40.1901 63.8632 39.9696 63.7672 39.7115C63.6712 39.4534 63.646 39.1693 63.6948 38.8953C63.7437 38.6212 63.8643 38.3695 64.0415 38.1719C64.2187 37.9743 64.4445 37.8397 64.6904 37.7851C64.9362 37.7306 65.1911 37.7585 65.4227 37.8654C65.6543 37.9723 65.8523 38.1533 65.9915 38.3856C66.1308 38.618 66.2051 38.8911 66.2051 39.1705C66.2052 39.356 66.1725 39.5396 66.1089 39.711C66.0452 39.8824 65.952 40.0381 65.8343 40.1693C65.7167 40.3005 65.577 40.4045 65.4233 40.4755C65.2696 40.5465 65.1048 40.5831 64.9384 40.5831Z" fill="#81E383"/>
</svg>
