<svg width="290" height="56" viewBox="0 0 290 56" fill="none" xmlns="http://www.w3.org/2000/svg">
<rect width="290" height="56" />
<path d="M8.99607 39V9.90909H20.1324C22.2347 9.90909 23.9819 10.2405 25.3739 10.9034C26.7754 11.5568 27.8218 12.4517 28.5131 13.5881C29.2139 14.7244 29.5643 16.0123 29.5643 17.4517C29.5643 18.6354 29.337 19.6487 28.8824 20.4915C28.4279 21.3248 27.8171 22.0019 27.05 22.5227C26.283 23.0436 25.426 23.4176 24.479 23.6449V23.929C25.5112 23.9858 26.5008 24.303 27.4478 24.8807C28.4042 25.4489 29.1855 26.2538 29.7915 27.2955C30.3976 28.3371 30.7006 29.5966 30.7006 31.0739C30.7006 32.5795 30.336 33.9337 29.6069 35.1364C28.8777 36.3295 27.7792 37.2718 26.3114 37.9631C24.8436 38.6544 22.997 39 20.7716 39H8.99607ZM14.266 34.5966H19.9336C21.8465 34.5966 23.2243 34.232 24.0671 33.5028C24.9194 32.7642 25.3455 31.8172 25.3455 30.6619C25.3455 29.8002 25.1324 29.0237 24.7063 28.3324C24.2802 27.6316 23.6741 27.0824 22.8881 26.6847C22.1021 26.2775 21.1646 26.0739 20.0756 26.0739H14.266V34.5966ZM14.266 22.2812H19.479C20.3881 22.2812 21.2072 22.1155 21.9364 21.7841C22.6656 21.4432 23.2385 20.965 23.6552 20.3494C24.0813 19.7244 24.2944 18.9858 24.2944 18.1335C24.2944 17.0066 23.8966 16.0786 23.1012 15.3494C22.3152 14.6203 21.1457 14.2557 19.5927 14.2557H14.266V22.2812ZM108.801 9.90909V39H104.113L90.4059 19.1847H90.1644V39H84.8945V9.90909H89.6104L103.304 29.7386H103.559V9.90909H108.801ZM114.543 39V9.90909H119.813V23.2756H120.168L131.517 9.90909H137.952L126.702 22.9631L138.051 39H131.716L123.037 26.5284L119.813 30.3352V39H114.543ZM150.995 39V35.7188L165.91 14.3267H150.91V9.90909H172.444V13.1903L157.544 34.5824H172.529V39H150.995ZM177.629 39V9.90909H196.549V14.3267H182.899V22.2244H195.569V26.642H182.899V34.5824H196.663V39H177.629ZM201.926 9.90909H208.375L217.011 30.9886H217.352L225.988 9.90909H232.437V39H227.38V19.0142H227.11L219.071 38.9148H215.292L207.252 18.9716H206.983V39H201.926V9.90909ZM238.176 39V9.90909H257.096V14.3267H243.446V22.2244H256.116V26.642H243.446V34.5824H257.21V39H238.176ZM262.473 39V9.90909H267.743V34.5824H280.555V39H262.473Z" fill="#545454"/>
<path d="M79.2727 26.6276H45.071C44.6967 26.6276 44.3261 26.7033 43.9803 26.8505C43.6345 26.9977 43.3203 27.2134 43.0557 27.4853C42.791 27.7572 42.5811 28.0801 42.4378 28.4354C42.2946 28.7907 42.2209 29.1715 42.2209 29.5561C42.2209 29.9406 42.2946 30.3215 42.4378 30.6768C42.5811 31.0321 42.791 31.3549 43.0557 31.6268C43.3203 31.8988 43.6345 32.1145 43.9803 32.2617C44.3261 32.4088 44.6967 32.4846 45.071 32.4846H79.2727C80.0286 32.4846 80.7536 32.176 81.2881 31.6268C81.8226 31.0776 82.1228 30.3328 82.1228 29.5561C82.1228 28.7794 81.8226 28.0345 81.2881 27.4853C80.7536 26.9361 80.0286 26.6276 79.2727 26.6276V26.6276ZM79.2727 30.2885H68.0621C67.9387 30.5111 67.7601 30.6961 67.5445 30.8248C67.329 30.9535 67.0841 31.0213 66.8347 31.0213C66.5854 31.0213 66.3406 30.9535 66.125 30.8248C65.9094 30.6961 65.7308 30.5111 65.6073 30.2885H46.2963C46.1394 30.5677 45.8973 30.7858 45.6075 30.9092C45.3177 31.0325 44.9963 31.0542 44.6933 30.9707C44.3903 30.8873 44.1225 30.7035 43.9316 30.4478C43.7406 30.192 43.6371 29.8787 43.6371 29.5564C43.6371 29.2341 43.7406 28.9207 43.9316 28.665C44.1225 28.4093 44.3903 28.2255 44.6933 28.142C44.9963 28.0586 45.3177 28.0802 45.6075 28.2036C45.8973 28.3269 46.1394 28.5451 46.2963 28.8243H65.6073C65.7309 28.6019 65.9096 28.417 66.1251 28.2884C66.3407 28.1599 66.5855 28.0921 66.8347 28.0921C67.084 28.0921 67.3288 28.1599 67.5444 28.2884C67.7599 28.417 67.9385 28.6019 68.0621 28.8243H79.2727C79.4617 28.8243 79.6429 28.9014 79.7765 29.0387C79.9102 29.176 79.9852 29.3622 79.9852 29.5564C79.9852 29.7506 79.9102 29.9368 79.7765 30.0741C79.6429 30.2114 79.4617 30.2885 79.2727 30.2885V30.2885Z" fill="#8E8E8E"/>
<path d="M41.0073 30.9257L36.3809 39.1595C36.1937 39.4926 36.0723 39.8603 36.0234 40.2416C35.9746 40.6229 35.9993 41.0104 36.0962 41.3819C36.1931 41.7534 36.3603 42.1017 36.5882 42.4068C36.8161 42.7119 37.1002 42.9679 37.4244 43.1602C37.7486 43.3525 38.1064 43.4773 38.4775 43.5275C38.8487 43.5777 39.2258 43.5522 39.5873 43.4527C39.9489 43.3531 40.2878 43.1814 40.5848 42.9472C40.8818 42.7131 41.1309 42.4211 41.318 42.088L45.8911 33.9493H45.0686C44.168 33.949 43.2905 33.6565 42.5612 33.1135C41.8319 32.5706 41.2881 31.8049 41.0073 30.9257V30.9257ZM38.8498 42.0861C38.5678 42.0862 38.2921 42.0004 38.0575 41.8395C37.823 41.6787 37.6402 41.4499 37.5322 41.1823C37.4242 40.9146 37.3958 40.62 37.4508 40.3358C37.5057 40.0516 37.6415 39.7906 37.8408 39.5856C38.0402 39.3807 38.2942 39.2411 38.5708 39.1845C38.8474 39.128 39.134 39.1569 39.3946 39.2678C39.6551 39.3786 39.8778 39.5664 40.0345 39.8073C40.1912 40.0482 40.2749 40.3315 40.2749 40.6212C40.2749 40.8136 40.2381 41.004 40.1666 41.1818C40.095 41.3595 39.99 41.521 39.8577 41.657C39.7253 41.7931 39.5682 41.901 39.3953 41.9746C39.2223 42.0482 39.037 42.0861 38.8498 42.0861V42.0861ZM52.2485 12.3822C52.1019 12.1204 51.9816 11.844 51.8893 11.5572L44.1933 25.2563C44.4812 25.1945 44.7745 25.1633 45.0686 25.1631H50.8301L55.1305 17.5093L52.2485 12.3822Z" fill="#6AD289"/>
<path d="M58.42 8.72378C58.042 8.05107 57.4195 7.56018 56.6893 7.3591C55.9591 7.15802 55.181 7.26323 54.5263 7.65157C53.8716 8.03991 53.3939 8.67959 53.1982 9.42987C53.0025 10.1801 53.1048 10.9796 53.4828 11.6523L61.0746 25.1631H67.6575L58.42 8.72378ZM55.9517 11.6523C55.6698 11.6523 55.3943 11.5664 55.16 11.4055C54.9256 11.2446 54.743 11.0159 54.6351 10.7484C54.5272 10.4808 54.499 10.1864 54.554 9.90238C54.609 9.61834 54.7447 9.35743 54.944 9.15265C55.1433 8.94787 55.3973 8.80842 55.6737 8.75192C55.9501 8.69542 56.2367 8.72442 56.4971 8.83524C56.7575 8.94607 56.98 9.13375 57.1366 9.37454C57.2932 9.61534 57.3768 9.89844 57.3768 10.188C57.3768 10.5764 57.2266 10.9488 56.9594 11.2234C56.6921 11.498 56.3296 11.6523 55.9517 11.6523V11.6523ZM75.522 39.1595L72.594 33.9493H66.0118L70.5824 42.0861C70.9604 42.7588 71.5829 43.2497 72.3131 43.4508C73.0433 43.6519 73.8214 43.5467 74.4761 43.1583C75.1308 42.77 75.6085 42.1303 75.8042 41.38C75.9999 40.6298 75.8975 39.8303 75.5196 39.1576L75.522 39.1595ZM73.0537 42.0861C72.7717 42.0863 72.4961 42.0004 72.2615 41.8396C72.027 41.6787 71.8442 41.4499 71.7362 41.1823C71.6282 40.9146 71.5998 40.62 71.6548 40.3358C71.7097 40.0516 71.8455 39.7906 72.0448 39.5856C72.2442 39.3807 72.4982 39.2411 72.7748 39.1846C73.0513 39.128 73.338 39.1569 73.5986 39.2678C73.8591 39.3787 74.0818 39.5664 74.2385 39.8073C74.3952 40.0482 74.4788 40.3315 74.4788 40.6212C74.4789 40.8136 74.4421 41.0041 74.3705 41.1818C74.2989 41.3595 74.194 41.521 74.0616 41.657C73.9293 41.7931 73.7722 41.901 73.5993 41.9746C73.4263 42.0482 73.2409 42.0861 73.0537 42.0861Z" fill="#81E383"/>
</svg>
